<mxfile host="app.diagrams.net" modified="2023-12-07T21:58:24.233Z" agent="Mozilla/5.0 (Windows NT 10.0; Win64; x64) AppleWebKit/537.36 (KHTML, like Gecko) Chrome/119.0.0.0 Safari/537.36" etag="7I5gTyLWFm3brW39LeW_" version="22.1.7" type="device">
  <diagram name="Page-1" id="XBio46pdE2gPmhZggtZ2">
    <mxGraphModel dx="1562" dy="865" grid="1" gridSize="10" guides="1" tooltips="1" connect="1" arrows="1" fold="1" page="1" pageScale="1" pageWidth="850" pageHeight="1100" math="0" shadow="0">
      <root>
        <mxCell id="0" />
        <mxCell id="1" parent="0" />
        <mxCell id="EUsP58oPQnJiaMsR7d8t-3" value="" style="edgeStyle=orthogonalEdgeStyle;rounded=0;orthogonalLoop=1;jettySize=auto;html=1;" parent="1" source="EUsP58oPQnJiaMsR7d8t-1" target="EUsP58oPQnJiaMsR7d8t-2" edge="1">
          <mxGeometry relative="1" as="geometry">
            <Array as="points">
              <mxPoint x="400" y="200" />
              <mxPoint x="400" y="200" />
            </Array>
          </mxGeometry>
        </mxCell>
        <mxCell id="EUsP58oPQnJiaMsR7d8t-8" value="Uses" style="edgeLabel;html=1;align=center;verticalAlign=middle;resizable=0;points=[];" parent="EUsP58oPQnJiaMsR7d8t-3" vertex="1" connectable="0">
          <mxGeometry x="0.025" y="-1" relative="1" as="geometry">
            <mxPoint x="-19" as="offset" />
          </mxGeometry>
        </mxCell>
        <mxCell id="EUsP58oPQnJiaMsR7d8t-1" value="User" style="rounded=1;whiteSpace=wrap;html=1;fillColor=#fff2cc;strokeColor=#d6b656;" parent="1" vertex="1">
          <mxGeometry x="365" y="80" width="120" height="60" as="geometry" />
        </mxCell>
        <mxCell id="EUsP58oPQnJiaMsR7d8t-4" style="edgeStyle=orthogonalEdgeStyle;rounded=0;orthogonalLoop=1;jettySize=auto;html=1;entryX=0.75;entryY=1;entryDx=0;entryDy=0;" parent="1" source="EUsP58oPQnJiaMsR7d8t-2" target="EUsP58oPQnJiaMsR7d8t-1" edge="1">
          <mxGeometry relative="1" as="geometry">
            <Array as="points">
              <mxPoint x="455" y="200" />
              <mxPoint x="455" y="200" />
            </Array>
          </mxGeometry>
        </mxCell>
        <mxCell id="EUsP58oPQnJiaMsR7d8t-9" value="Teaches" style="edgeLabel;html=1;align=center;verticalAlign=middle;resizable=0;points=[];" parent="EUsP58oPQnJiaMsR7d8t-4" vertex="1" connectable="0">
          <mxGeometry x="0.075" relative="1" as="geometry">
            <mxPoint x="25" y="3" as="offset" />
          </mxGeometry>
        </mxCell>
        <mxCell id="EUsP58oPQnJiaMsR7d8t-7" value="" style="edgeStyle=orthogonalEdgeStyle;rounded=0;orthogonalLoop=1;jettySize=auto;html=1;" parent="1" source="EUsP58oPQnJiaMsR7d8t-2" target="EUsP58oPQnJiaMsR7d8t-6" edge="1">
          <mxGeometry relative="1" as="geometry">
            <Array as="points">
              <mxPoint x="300" y="250" />
              <mxPoint x="300" y="250" />
            </Array>
          </mxGeometry>
        </mxCell>
        <mxCell id="EUsP58oPQnJiaMsR7d8t-12" value="Sends prompts" style="edgeLabel;html=1;align=center;verticalAlign=middle;resizable=0;points=[];" parent="EUsP58oPQnJiaMsR7d8t-7" vertex="1" connectable="0">
          <mxGeometry x="-0.0318" y="-3" relative="1" as="geometry">
            <mxPoint y="-12" as="offset" />
          </mxGeometry>
        </mxCell>
        <mxCell id="EUsP58oPQnJiaMsR7d8t-14" value="" style="edgeStyle=orthogonalEdgeStyle;rounded=0;orthogonalLoop=1;jettySize=auto;html=1;" parent="1" source="EUsP58oPQnJiaMsR7d8t-2" target="EUsP58oPQnJiaMsR7d8t-13" edge="1">
          <mxGeometry relative="1" as="geometry">
            <Array as="points">
              <mxPoint x="400" y="350" />
              <mxPoint x="400" y="350" />
            </Array>
          </mxGeometry>
        </mxCell>
        <mxCell id="EUsP58oPQnJiaMsR7d8t-16" value="Sends requests" style="edgeLabel;html=1;align=center;verticalAlign=middle;resizable=0;points=[];" parent="EUsP58oPQnJiaMsR7d8t-14" vertex="1" connectable="0">
          <mxGeometry x="-0.2" y="-1" relative="1" as="geometry">
            <mxPoint x="-51" y="12" as="offset" />
          </mxGeometry>
        </mxCell>
        <mxCell id="EUsP58oPQnJiaMsR7d8t-21" value="" style="edgeStyle=orthogonalEdgeStyle;rounded=0;orthogonalLoop=1;jettySize=auto;html=1;" parent="1" source="EUsP58oPQnJiaMsR7d8t-2" target="EUsP58oPQnJiaMsR7d8t-20" edge="1">
          <mxGeometry relative="1" as="geometry">
            <Array as="points">
              <mxPoint x="560" y="280" />
              <mxPoint x="560" y="280" />
            </Array>
          </mxGeometry>
        </mxCell>
        <mxCell id="EUsP58oPQnJiaMsR7d8t-24" value="Sends code for compilation" style="edgeLabel;html=1;align=center;verticalAlign=middle;resizable=0;points=[];" parent="EUsP58oPQnJiaMsR7d8t-21" vertex="1" connectable="0">
          <mxGeometry x="-0.0131" y="-1" relative="1" as="geometry">
            <mxPoint y="14" as="offset" />
          </mxGeometry>
        </mxCell>
        <mxCell id="EUsP58oPQnJiaMsR7d8t-2" value="React.js Tutorial Web Application" style="shape=process;whiteSpace=wrap;html=1;backgroundOutline=1;rounded=1;fillColor=#dae8fc;strokeColor=#6c8ebf;" parent="1" vertex="1">
          <mxGeometry x="348" y="220" width="155" height="90" as="geometry" />
        </mxCell>
        <mxCell id="EUsP58oPQnJiaMsR7d8t-10" style="edgeStyle=orthogonalEdgeStyle;rounded=0;orthogonalLoop=1;jettySize=auto;html=1;entryX=0.008;entryY=0.624;entryDx=0;entryDy=0;entryPerimeter=0;" parent="1" source="EUsP58oPQnJiaMsR7d8t-6" target="EUsP58oPQnJiaMsR7d8t-2" edge="1">
          <mxGeometry relative="1" as="geometry">
            <Array as="points">
              <mxPoint x="300" y="276" />
              <mxPoint x="300" y="276" />
            </Array>
          </mxGeometry>
        </mxCell>
        <mxCell id="EUsP58oPQnJiaMsR7d8t-11" value="Generates text" style="edgeLabel;html=1;align=center;verticalAlign=middle;resizable=0;points=[];" parent="EUsP58oPQnJiaMsR7d8t-10" vertex="1" connectable="0">
          <mxGeometry x="-0.1027" y="-4" relative="1" as="geometry">
            <mxPoint y="10" as="offset" />
          </mxGeometry>
        </mxCell>
        <mxCell id="EUsP58oPQnJiaMsR7d8t-6" value="OpenAI API" style="whiteSpace=wrap;html=1;fillColor=#fff2cc;strokeColor=#d6b656;rounded=1;" parent="1" vertex="1">
          <mxGeometry x="130.5" y="235" width="120" height="60" as="geometry" />
        </mxCell>
        <mxCell id="EUsP58oPQnJiaMsR7d8t-13" value="YouTube Data API" style="whiteSpace=wrap;html=1;fillColor=#fff2cc;strokeColor=#d6b656;rounded=1;" parent="1" vertex="1">
          <mxGeometry x="365.5" y="380" width="120" height="60" as="geometry" />
        </mxCell>
        <mxCell id="EUsP58oPQnJiaMsR7d8t-15" style="edgeStyle=orthogonalEdgeStyle;rounded=0;orthogonalLoop=1;jettySize=auto;html=1;entryX=0.674;entryY=1.024;entryDx=0;entryDy=0;entryPerimeter=0;" parent="1" source="EUsP58oPQnJiaMsR7d8t-13" target="EUsP58oPQnJiaMsR7d8t-2" edge="1">
          <mxGeometry relative="1" as="geometry">
            <Array as="points">
              <mxPoint x="452" y="360" />
              <mxPoint x="452" y="360" />
            </Array>
          </mxGeometry>
        </mxCell>
        <mxCell id="EUsP58oPQnJiaMsR7d8t-17" value="Returns feedback" style="edgeLabel;html=1;align=center;verticalAlign=middle;resizable=0;points=[];" parent="EUsP58oPQnJiaMsR7d8t-15" vertex="1" connectable="0">
          <mxGeometry x="-0.0862" relative="1" as="geometry">
            <mxPoint x="51" as="offset" />
          </mxGeometry>
        </mxCell>
        <mxCell id="EUsP58oPQnJiaMsR7d8t-20" value="OneCompiler Embed" style="whiteSpace=wrap;html=1;fillColor=#fff2cc;strokeColor=#d6b656;rounded=1;" parent="1" vertex="1">
          <mxGeometry x="660" y="235" width="120" height="60" as="geometry" />
        </mxCell>
        <mxCell id="EUsP58oPQnJiaMsR7d8t-22" style="edgeStyle=orthogonalEdgeStyle;rounded=0;orthogonalLoop=1;jettySize=auto;html=1;" parent="1" source="EUsP58oPQnJiaMsR7d8t-20" edge="1">
          <mxGeometry relative="1" as="geometry">
            <mxPoint x="500" y="250" as="targetPoint" />
            <Array as="points">
              <mxPoint x="502" y="250" />
            </Array>
          </mxGeometry>
        </mxCell>
        <mxCell id="EUsP58oPQnJiaMsR7d8t-23" value="Returns compilation result" style="edgeLabel;html=1;align=center;verticalAlign=middle;resizable=0;points=[];" parent="EUsP58oPQnJiaMsR7d8t-22" vertex="1" connectable="0">
          <mxGeometry x="-0.0704" y="4" relative="1" as="geometry">
            <mxPoint x="-9" y="-19" as="offset" />
          </mxGeometry>
        </mxCell>
      </root>
    </mxGraphModel>
  </diagram>
</mxfile>
